name C:\Users\u0101727\Documents\MyRepositories\upper-imu-dc\OpenSim\subject0\MA\MA_Splines\angle_in_n6_dof6_1.mot
datacolumns 7
datarows 81
range 150.01000000 150.81000000
endheader 
time	clav_prot	clav_elev	scapula_abduction	scapula_elevation	scapula_upward_rot	scapula_winging	
        150.01000000	        -44.34577705	         11.96046367	        -14.01721834	          1.12405674	         85.49388449	         -8.57402492	
        150.02000000	        -38.85780873	         11.96046367	        -14.01721834	          1.12405674	         85.49388449	         -8.57402492	
        150.03000000	        -33.36984042	         11.96046367	        -14.01721834	          1.12405674	         85.49388449	         -8.57402492	
        150.04000000	        -27.88187210	         11.96046367	        -14.01721834	          1.12405674	         85.49388449	         -8.57402492	
        150.05000000	        -22.39390379	         11.96046367	        -14.01721834	          1.12405674	         85.49388449	         -8.57402492	
        150.06000000	        -16.90593547	         11.96046367	        -14.01721834	          1.12405674	         85.49388449	         -8.57402492	
        150.07000000	        -44.34577705	         16.86370047	        -14.01721834	          1.12405674	         85.49388449	         -8.57402492	
        150.08000000	        -38.85780873	         16.86370047	        -14.01721834	          1.12405674	         85.49388449	         -8.57402492	
        150.09000000	        -33.36984042	         16.86370047	        -14.01721834	          1.12405674	         85.49388449	         -8.57402492	
        150.10000000	        -27.88187210	         16.86370047	        -14.01721834	          1.12405674	         85.49388449	         -8.57402492	
        150.11000000	        -22.39390379	         16.86370047	        -14.01721834	          1.12405674	         85.49388449	         -8.57402492	
        150.12000000	        -16.90593547	         16.86370047	        -14.01721834	          1.12405674	         85.49388449	         -8.57402492	
        150.13000000	        -44.34577705	         -7.65248351	         -5.58217594	          1.12405674	         85.49388449	         -8.57402492	
        150.14000000	        -38.85780873	         -7.65248351	         -5.58217594	          1.12405674	         85.49388449	         -8.57402492	
        150.15000000	        -33.36984042	         -7.65248351	         -5.58217594	          1.12405674	         85.49388449	         -8.57402492	
        150.16000000	        -27.88187210	         -7.65248351	         -5.58217594	          1.12405674	         85.49388449	         -8.57402492	
        150.17000000	        -22.39390379	         -7.65248351	         -5.58217594	          1.12405674	         85.49388449	         -8.57402492	
        150.18000000	        -16.90593547	         -7.65248351	         -5.58217594	          1.12405674	         85.49388449	         -8.57402492	
        150.19000000	        -44.34577705	         -2.74924671	         -5.58217594	          1.12405674	         85.49388449	         -8.57402492	
        150.20000000	        -38.85780873	         -2.74924671	         -5.58217594	          1.12405674	         85.49388449	         -8.57402492	
        150.21000000	        -33.36984042	         -2.74924671	         -5.58217594	          1.12405674	         85.49388449	         -8.57402492	
        150.22000000	        -27.88187210	         -2.74924671	         -5.58217594	          1.12405674	         85.49388449	         -8.57402492	
        150.23000000	        -22.39390379	         -2.74924671	         -5.58217594	          1.12405674	         85.49388449	         -8.57402492	
        150.24000000	        -16.90593547	         -2.74924671	         -5.58217594	          1.12405674	         85.49388449	         -8.57402492	
        150.25000000	        -44.34577705	          2.15399008	         -5.58217594	          1.12405674	         85.49388449	         -8.57402492	
        150.26000000	        -38.85780873	          2.15399008	         -5.58217594	          1.12405674	         85.49388449	         -8.57402492	
        150.27000000	        -33.36984042	          2.15399008	         -5.58217594	          1.12405674	         85.49388449	         -8.57402492	
        150.28000000	        -27.88187210	          2.15399008	         -5.58217594	          1.12405674	         85.49388449	         -8.57402492	
        150.29000000	        -22.39390379	          2.15399008	         -5.58217594	          1.12405674	         85.49388449	         -8.57402492	
        150.30000000	        -16.90593547	          2.15399008	         -5.58217594	          1.12405674	         85.49388449	         -8.57402492	
        150.31000000	        -44.34577705	          7.05722688	         -5.58217594	          1.12405674	         85.49388449	         -8.57402492	
        150.32000000	        -38.85780873	          7.05722688	         -5.58217594	          1.12405674	         85.49388449	         -8.57402492	
        150.33000000	        -33.36984042	          7.05722688	         -5.58217594	          1.12405674	         85.49388449	         -8.57402492	
        150.34000000	        -27.88187210	          7.05722688	         -5.58217594	          1.12405674	         85.49388449	         -8.57402492	
        150.35000000	        -22.39390379	          7.05722688	         -5.58217594	          1.12405674	         85.49388449	         -8.57402492	
        150.36000000	        -16.90593547	          7.05722688	         -5.58217594	          1.12405674	         85.49388449	         -8.57402492	
        150.37000000	        -44.34577705	         11.96046367	         -5.58217594	          1.12405674	         85.49388449	         -8.57402492	
        150.38000000	        -38.85780873	         11.96046367	         -5.58217594	          1.12405674	         85.49388449	         -8.57402492	
        150.39000000	        -33.36984042	         11.96046367	         -5.58217594	          1.12405674	         85.49388449	         -8.57402492	
        150.40000000	        -27.88187210	         11.96046367	         -5.58217594	          1.12405674	         85.49388449	         -8.57402492	
        150.41000000	        -22.39390379	         11.96046367	         -5.58217594	          1.12405674	         85.49388449	         -8.57402492	
        150.42000000	        -16.90593547	         11.96046367	         -5.58217594	          1.12405674	         85.49388449	         -8.57402492	
        150.43000000	        -44.34577705	         16.86370047	         -5.58217594	          1.12405674	         85.49388449	         -8.57402492	
        150.44000000	        -38.85780873	         16.86370047	         -5.58217594	          1.12405674	         85.49388449	         -8.57402492	
        150.45000000	        -33.36984042	         16.86370047	         -5.58217594	          1.12405674	         85.49388449	         -8.57402492	
        150.46000000	        -27.88187210	         16.86370047	         -5.58217594	          1.12405674	         85.49388449	         -8.57402492	
        150.47000000	        -22.39390379	         16.86370047	         -5.58217594	          1.12405674	         85.49388449	         -8.57402492	
        150.48000000	        -16.90593547	         16.86370047	         -5.58217594	          1.12405674	         85.49388449	         -8.57402492	
        150.49000000	        -44.34577705	         -7.65248351	          2.85286645	          1.12405674	         85.49388449	         -8.57402492	
        150.50000000	        -38.85780873	         -7.65248351	          2.85286645	          1.12405674	         85.49388449	         -8.57402492	
        150.51000000	        -33.36984042	         -7.65248351	          2.85286645	          1.12405674	         85.49388449	         -8.57402492	
        150.52000000	        -27.88187210	         -7.65248351	          2.85286645	          1.12405674	         85.49388449	         -8.57402492	
        150.53000000	        -22.39390379	         -7.65248351	          2.85286645	          1.12405674	         85.49388449	         -8.57402492	
        150.54000000	        -16.90593547	         -7.65248351	          2.85286645	          1.12405674	         85.49388449	         -8.57402492	
        150.55000000	        -44.34577705	         -2.74924671	          2.85286645	          1.12405674	         85.49388449	         -8.57402492	
        150.56000000	        -38.85780873	         -2.74924671	          2.85286645	          1.12405674	         85.49388449	         -8.57402492	
        150.57000000	        -33.36984042	         -2.74924671	          2.85286645	          1.12405674	         85.49388449	         -8.57402492	
        150.58000000	        -27.88187210	         -2.74924671	          2.85286645	          1.12405674	         85.49388449	         -8.57402492	
        150.59000000	        -22.39390379	         -2.74924671	          2.85286645	          1.12405674	         85.49388449	         -8.57402492	
        150.60000000	        -16.90593547	         -2.74924671	          2.85286645	          1.12405674	         85.49388449	         -8.57402492	
        150.61000000	        -44.34577705	          2.15399008	          2.85286645	          1.12405674	         85.49388449	         -8.57402492	
        150.62000000	        -38.85780873	          2.15399008	          2.85286645	          1.12405674	         85.49388449	         -8.57402492	
        150.63000000	        -33.36984042	          2.15399008	          2.85286645	          1.12405674	         85.49388449	         -8.57402492	
        150.64000000	        -27.88187210	          2.15399008	          2.85286645	          1.12405674	         85.49388449	         -8.57402492	
        150.65000000	        -22.39390379	          2.15399008	          2.85286645	          1.12405674	         85.49388449	         -8.57402492	
        150.66000000	        -16.90593547	          2.15399008	          2.85286645	          1.12405674	         85.49388449	         -8.57402492	
        150.67000000	        -44.34577705	          7.05722688	          2.85286645	          1.12405674	         85.49388449	         -8.57402492	
        150.68000000	        -38.85780873	          7.05722688	          2.85286645	          1.12405674	         85.49388449	         -8.57402492	
        150.69000000	        -33.36984042	          7.05722688	          2.85286645	          1.12405674	         85.49388449	         -8.57402492	
        150.70000000	        -27.88187210	          7.05722688	          2.85286645	          1.12405674	         85.49388449	         -8.57402492	
        150.71000000	        -22.39390379	          7.05722688	          2.85286645	          1.12405674	         85.49388449	         -8.57402492	
        150.72000000	        -16.90593547	          7.05722688	          2.85286645	          1.12405674	         85.49388449	         -8.57402492	
        150.73000000	        -44.34577705	         11.96046367	          2.85286645	          1.12405674	         85.49388449	         -8.57402492	
        150.74000000	        -38.85780873	         11.96046367	          2.85286645	          1.12405674	         85.49388449	         -8.57402492	
        150.75000000	        -33.36984042	         11.96046367	          2.85286645	          1.12405674	         85.49388449	         -8.57402492	
        150.76000000	        -27.88187210	         11.96046367	          2.85286645	          1.12405674	         85.49388449	         -8.57402492	
        150.77000000	        -22.39390379	         11.96046367	          2.85286645	          1.12405674	         85.49388449	         -8.57402492	
        150.78000000	        -16.90593547	         11.96046367	          2.85286645	          1.12405674	         85.49388449	         -8.57402492	
        150.79000000	        -44.34577705	         16.86370047	          2.85286645	          1.12405674	         85.49388449	         -8.57402492	
        150.80000000	        -38.85780873	         16.86370047	          2.85286645	          1.12405674	         85.49388449	         -8.57402492	
        150.81000000	        -33.36984042	         16.86370047	          2.85286645	          1.12405674	         85.49388449	         -8.57402492	
